HIERARCHY
ROOT joint_Root
{
	OFFSET 0.0 0.0 0.0
	CHANNELS 6 Xposition Yposition Zposition Zrotation Xrotation Yrotation 
	JOINT Hips
	{
		OFFSET 4.5925 91.4895 -427.239
		CHANNELS 6 Xposition Yposition Zposition Zrotation Xrotation Yrotation 
		JOINT Spine
		{
			OFFSET 15.7357 0.0 0.0
			CHANNELS 6 Xposition Yposition Zposition Zrotation Xrotation Yrotation 
			JOINT Chest
			{
				OFFSET 8.98455 -0.406207 0.0
				CHANNELS 6 Xposition Yposition Zposition Zrotation Xrotation Yrotation 
				JOINT Neck
				{
					OFFSET 16.3773 0.0 0.0
					CHANNELS 6 Xposition Yposition Zposition Zrotation Xrotation Yrotation 
					JOINT Head
					{
						OFFSET 6.45672 0.0 0.0
						CHANNELS 6 Xposition Yposition Zposition Zrotation Xrotation Yrotation 
						End Site
						{
							OFFSET 0.0 0.0 0.0
						}
					}
				}
				JOINT Shoulder_L
				{
					OFFSET 12.9942 -0.242716 4.98039
					CHANNELS 6 Xposition Yposition Zposition Zrotation Xrotation Yrotation 
					JOINT UpperArm_L
					{
						OFFSET 5.34809 0.0 0.0
						CHANNELS 6 Xposition Yposition Zposition Zrotation Xrotation Yrotation 
						JOINT LowerArm_L
						{
							OFFSET 24.3286 1.87007e-05 0.0
							CHANNELS 6 Xposition Yposition Zposition Zrotation Xrotation Yrotation 
							JOINT Hand_L
							{
								OFFSET 22.2916 0.0 0.0
								CHANNELS 6 Xposition Yposition Zposition Zrotation Xrotation Yrotation 
								End Site
								{
									OFFSET 0.0 0.0 0.0
								}
							}
						}
					}
				}
				JOINT Shoulder_R
				{
					OFFSET 12.9945 -0.242716 -4.98039
					CHANNELS 6 Xposition Yposition Zposition Zrotation Xrotation Yrotation 
					JOINT UpperArm_R
					{
						OFFSET -5.34813 0.0 0.0
						CHANNELS 6 Xposition Yposition Zposition Zrotation Xrotation Yrotation 
						JOINT LowerArm_R
						{
							OFFSET -24.3289 0.000322201 0.0
							CHANNELS 6 Xposition Yposition Zposition Zrotation Xrotation Yrotation 
							JOINT Hand_R
							{
								OFFSET -22.2915 -0.000108084 0.0
								CHANNELS 6 Xposition Yposition Zposition Zrotation Xrotation Yrotation 
								End Site
								{
									OFFSET 0.0 0.0 0.0
								}
							}
						}
					}
				}
			}
		}
		JOINT UpperLeg_L
		{
			OFFSET -2.19248 -6.46944 0.0
			CHANNELS 6 Xposition Yposition Zposition Zrotation Xrotation Yrotation 
			JOINT LowerLeg_L
			{
				OFFSET 39.0811 0.0 -1.23785e-05
				CHANNELS 6 Xposition Yposition Zposition Zrotation Xrotation Yrotation 
				JOINT Foot_L
				{
					OFFSET 40.9854 0.0 -1.26872e-05
					CHANNELS 6 Xposition Yposition Zposition Zrotation Xrotation Yrotation 
					JOINT Toes_L
					{
						OFFSET 11.7543 0.0 0.0
						CHANNELS 6 Xposition Yposition Zposition Zrotation Xrotation Yrotation 
						End Site
						{
							OFFSET 0.0 0.0 0.0
						}
					}
				}
			}
		}
		JOINT UpperLeg_R
		{
			OFFSET -2.19251 6.46944 0.0
			CHANNELS 6 Xposition Yposition Zposition Zrotation Xrotation Yrotation 
			JOINT LowerLeg_R
			{
				OFFSET -39.0811 -0.00228153 -0.0401928
				CHANNELS 6 Xposition Yposition Zposition Zrotation Xrotation Yrotation 
				JOINT Foot_R
				{
					OFFSET -40.9854 0.0 0.0
					CHANNELS 6 Xposition Yposition Zposition Zrotation Xrotation Yrotation 
					JOINT Toes_R
					{
						OFFSET -11.7543 0.0 0.0
						CHANNELS 6 Xposition Yposition Zposition Zrotation Xrotation Yrotation 
						End Site
						{
							OFFSET 0.0 0.0 0.0
						}
					}
				}
			}
		}
	}
}
MOTION
Frames:	7
Frame Time:	0.0333333
0.000000 0.000000 0.000000 0.000000 0.000000 -0.000000 -0.977568 83.650300 0.155615 88.238300 3.061340 11.251900 15.735700 0.000005 -0.000001 99.239200 80.022200 -101.390000 8.984550 -0.406207 -0.000000 12.005700 3.096690 -4.627850 16.377300 -0.000001 -0.000001 -0.217810 -7.577440 2.145630 6.456720 -0.000001 -0.000000 -2.244250 -12.990800 9.141460 12.994200 -0.242716 4.980390 -92.677800 7.194490 -69.521600 5.348090 -0.000007 -0.000001 -70.131100 18.173400 1.397570 24.328600 0.000019 0.000005 3.431530 9.485940 -19.992400 22.291600 -0.000001 0.000005 15.053900 5.124370 4.543430 12.994500 -0.242716 -4.980390 88.702800 8.924900 -81.695800 -5.348130 -0.000001 -0.000004 -64.559900 28.613100 -11.309600 -24.328900 0.000322 -0.000009 -1.162010 -3.040010 -20.912900 -22.291500 -0.000108 -0.000004 18.067600 5.409790 -3.257120 -2.192480 -6.469440 -0.000000 -171.897000 -10.422600 -12.734100 39.081100 -0.000007 -0.000012 -0.441461 0.274734 58.105800 40.985400 -0.000006 -0.000013 2.312350 8.824710 -84.195300 11.754300 -0.000000 0.000003 -0.000236 -0.002131 -16.657500 -2.192510 6.469440 -0.000001 177.142000 18.039000 169.151000 -39.081100 -0.002282 -0.040193 0.108286 -0.066138 57.811700 -40.985400 0.000008 0.000006 5.422420 0.946581 -83.998500 -11.754300 -0.000006 -0.000006 -1.249880 -1.548130 -17.264000
0.000000 0.000000 0.000000 0.000000 0.000000 -0.000000 0.058652 85.361900 0.751276 89.033400 -1.395300 10.689900 15.735700 0.000005 -0.000001 99.528200 80.970100 -101.006000 8.984550 -0.406207 -0.000000 10.094300 2.940400 -3.214320 16.377300 -0.000001 -0.000001 0.921315 -6.601080 1.947510 6.456720 -0.000001 -0.000000 -1.105810 -10.981500 7.094820 12.994200 -0.242716 4.980390 -92.238000 5.759130 -68.719000 5.348090 -0.000007 -0.000001 -67.493400 15.957200 -1.704690 24.328600 0.000019 0.000005 5.737490 15.930000 -20.107900 22.291600 -0.000001 0.000005 10.187500 5.155050 3.813890 12.994500 -0.242716 -4.980390 88.630500 8.614480 -80.931000 -5.348130 -0.000001 -0.000004 -64.622100 28.370300 -11.783700 -24.328900 0.000322 -0.000009 -1.054720 -2.574280 -22.270500 -22.291500 -0.000108 -0.000004 17.487800 5.411470 -3.316010 -2.192480 -6.469440 -0.000000 -173.336000 -12.505400 -9.140700 39.081100 -0.000007 -0.000012 -0.418936 0.323197 52.351800 40.985400 -0.000006 -0.000013 1.468240 6.231080 -82.212500 11.754300 -0.000000 0.000003 -0.000242 -0.002175 -16.659100 -2.192510 6.469440 -0.000001 175.736000 16.009200 170.863000 -39.081100 -0.002282 -0.040193 0.076119 -0.054851 53.035300 -40.985400 0.000008 0.000006 5.643650 4.111130 -81.207700 -11.754300 -0.000006 -0.000006 -1.308450 -1.611200 -17.582000
0.000000 0.000000 0.000000 0.000000 0.000000 -0.000000 0.827890 87.231100 1.140040 89.385000 -4.760540 9.000640 15.735700 0.000005 -0.000001 100.930000 82.429600 -101.404000 8.984550 -0.406207 -0.000000 7.118980 2.863470 -1.125040 16.377300 -0.000001 -0.000001 3.386650 -5.512700 1.154000 6.456720 -0.000001 -0.000000 0.103017 -8.925050 4.238000 12.994200 -0.242716 4.980390 -91.664900 4.030190 -67.529400 5.348090 -0.000007 -0.000001 -61.069900 8.857620 -11.057300 24.328600 0.000019 0.000005 8.109570 20.973400 -21.707300 22.291600 -0.000001 0.000005 7.927590 5.129280 4.433170 12.994500 -0.242716 -4.980390 88.593600 7.842730 -79.799300 -5.348130 -0.000001 -0.000004 -65.442400 28.025400 -10.226200 -24.328900 0.000322 -0.000009 -0.878975 -1.873810 -25.116700 -22.291500 -0.000108 -0.000004 16.922200 5.433170 -4.051720 -2.192480 -6.469440 -0.000000 -174.580000 -14.063700 -6.801380 39.081100 -0.000007 -0.000012 -0.375020 0.367241 45.601200 40.985400 -0.000006 -0.000013 0.884140 4.315340 -79.412400 11.754300 -0.000000 0.000003 -0.000211 -0.001934 -16.650400 -2.192510 6.469440 -0.000001 175.073000 15.616700 171.713000 -39.081100 -0.002282 -0.040193 0.053019 -0.046001 47.249200 -40.985400 0.000008 0.000006 5.934330 7.410460 -77.624000 -11.754300 -0.000006 -0.000006 -1.247640 -1.513130 -18.227300
0.000000 0.000000 0.000000 0.000000 0.000000 -0.000000 1.325910 88.716900 1.382740 89.662400 -6.727010 7.420430 15.735700 0.000005 -0.000001 101.400000 83.865200 -101.082000 8.984550 -0.406207 -0.000000 4.257900 2.411510 0.545958 16.377300 -0.000001 -0.000001 6.429660 -4.929940 0.647378 6.456720 -0.000001 -0.000000 1.416070 -7.355680 1.844590 12.994200 -0.242716 4.980390 -91.037400 2.481380 -67.307800 5.348090 -0.000007 -0.000001 -52.964900 -1.817950 -23.445100 24.328600 0.000019 0.000005 8.098640 16.957700 -26.015300 22.291600 -0.000001 0.000005 10.833500 5.153950 3.873220 12.994500 -0.242716 -4.980390 88.547900 7.102550 -78.412200 -5.348130 -0.000001 -0.000004 -66.324200 28.243600 -8.390910 -24.328900 0.000322 -0.000009 -0.889911 -1.706420 -27.517300 -22.291500 -0.000108 -0.000004 16.379600 5.448680 -4.593050 -2.192480 -6.469440 -0.000000 -175.730000 -14.657500 -5.126610 39.081100 -0.000007 -0.000012 -0.297524 0.360612 39.525100 40.985400 -0.000006 -0.000013 0.479897 2.887770 -76.674300 11.754300 -0.000000 0.000003 -0.000219 -0.002001 -16.652800 -2.192510 6.469440 -0.000001 174.383000 17.092900 172.698000 -39.081100 -0.002282 -0.040193 0.036489 -0.037140 41.807000 -40.985400 0.000008 0.000006 6.079720 10.775500 -74.877600 -11.754300 -0.000006 -0.000006 -1.063040 -1.283570 -18.400100
0.000000 0.000000 0.000000 0.000000 0.000000 -0.000000 1.559090 89.579900 1.507000 89.930500 -7.125700 6.461410 15.735700 0.000005 -0.000001 97.189000 84.891700 -96.519600 8.984550 -0.406207 -0.000000 2.363770 1.245990 1.311830 16.377300 -0.000001 -0.000001 8.577210 -5.190820 0.690817 6.456720 -0.000001 -0.000000 2.503680 -7.067220 0.583943 12.994200 -0.242716 4.980390 -90.197300 0.507408 -68.838600 5.348090 -0.000007 -0.000001 -44.151100 -14.240600 -36.228400 24.328600 0.000019 0.000005 10.032200 15.124400 -34.136300 22.291600 -0.000001 0.000005 14.636900 5.252400 1.388380 12.994500 -0.242716 -4.980390 88.472500 6.666840 -77.063500 -5.348130 -0.000001 -0.000004 -67.138300 27.862300 -7.162990 -24.328900 0.000322 -0.000009 -0.806310 -1.456880 -28.936300 -22.291500 -0.000108 -0.000004 16.312500 5.450360 -4.652250 -2.192480 -6.469440 -0.000000 -176.770000 -13.453200 -4.163200 39.081100 -0.000007 -0.000012 -0.241001 0.337538 35.527200 40.985400 -0.000006 -0.000013 0.091330 1.524850 -74.777300 11.754300 -0.000000 0.000003 -0.000187 -0.001752 -16.643800 -2.192510 6.469440 -0.000001 173.652000 19.524700 173.965000 -39.081100 -0.002282 -0.040193 0.024954 -0.027997 37.740600 -40.985400 0.000008 0.000006 6.252550 13.426800 -73.868000 -11.754300 -0.000006 -0.000006 -0.352739 -0.442754 -18.132400
0.000000 0.000000 0.000000 0.000000 0.000000 -0.000000 1.635070 89.996700 1.516200 89.865400 -6.973740 5.964950 15.735700 0.000005 -0.000001 87.547500 85.240900 -86.662900 8.984550 -0.406207 -0.000000 1.747640 -0.453498 1.774410 16.377300 -0.000001 -0.000001 8.907990 -5.964170 0.730424 6.456720 -0.000001 -0.000000 2.927320 -7.575660 0.783051 12.994200 -0.242716 4.980390 -89.085000 -2.636610 -70.839100 5.348090 -0.000007 -0.000001 -37.571900 -29.214500 -47.126000 24.328600 0.000019 0.000005 12.066900 12.593200 -44.435900 22.291600 -0.000001 0.000005 16.804100 5.337120 -0.979119 12.994500 -0.242716 -4.980390 88.333600 6.846060 -76.284700 -5.348130 -0.000001 -0.000004 -66.472700 26.942500 -7.153260 -24.328900 0.000322 -0.000009 -0.943221 -1.638330 -29.907300 -22.291500 -0.000108 -0.000004 16.987000 5.444670 -4.450760 -2.192480 -6.469440 -0.000000 -177.196000 -11.994000 -3.781390 39.081100 -0.000007 -0.000012 -0.220527 0.332229 33.575800 40.985400 -0.000006 -0.000013 -0.207362 0.433097 -73.805200 11.754300 -0.000000 0.000003 -0.000188 -0.001758 -16.644000 -2.192510 6.469440 -0.000001 173.932000 19.515700 174.741000 -39.081100 -0.002282 -0.040193 0.021234 -0.025303 35.342200 -40.985400 0.000008 0.000006 6.154090 13.124400 -73.432800 -11.754300 -0.000006 -0.000006 -0.028281 -0.058373 -17.700600
0.000000 0.000000 0.000000 0.000000 0.000000 -0.000000 1.931470 90.223000 1.458900 89.718400 -7.606960 5.400750 15.735700 0.000005 -0.000001 78.166400 85.355200 -77.129600 8.984550 -0.406207 -0.000000 1.345590 -1.962180 2.094920 16.377300 -0.000001 -0.000001 8.735900 -6.521900 0.028198 6.456720 -0.000001 -0.000000 3.350150 -8.480580 2.735010 12.994200 -0.242716 4.980390 -87.652700 -6.665070 -70.556100 5.348090 -0.000007 -0.000001 -31.617600 -41.533200 -55.574700 24.328600 0.000019 0.000005 11.924300 9.172570 -52.971700 22.291600 -0.000001 0.000005 24.981700 5.398100 -2.730160 12.994500 -0.242716 -4.980390 88.122800 7.525390 -75.949800 -5.348130 -0.000001 -0.000004 -64.731800 25.875800 -7.598190 -24.328900 0.000322 -0.000009 -0.648242 -1.116990 -30.089700 -22.291500 -0.000108 -0.000004 17.970000 5.437090 -4.187520 -2.192480 -6.469440 -0.000000 -177.590000 -11.428600 -3.904050 39.081100 -0.000007 -0.000012 -0.220340 0.345046 32.561900 40.985400 -0.000006 -0.000013 -0.342077 -0.789194 -73.305500 11.754300 -0.000000 0.000003 -0.000181 -0.001703 -16.642000 -2.192510 6.469440 -0.000001 174.317000 18.453400 174.548000 -39.081100 -0.002282 -0.040193 0.020166 -0.024909 34.113400 -40.985400 0.000008 0.000006 5.781390 12.771600 -72.777000 -11.754300 -0.000006 -0.000006 -0.001643 -0.024153 -17.555200
